<svg xmlns="http://www.w3.org/2000/svg" viewBox="0 0 360 300" width="360" height="300">
  <rect width="360" height="300" fill="#ffffff"/>
  <text x="180" y="28" text-anchor="middle" font-family="Georgia, serif" font-size="15" font-weight="bold" fill="#111">The Anvil</text>
  <g fill="#1c3f8f">
    <g transform="translate(30,42)">
      <circle cx="0" cy="0" r="5"/><circle cx="14" cy="0" r="5"/><circle cx="28" cy="0" r="5"/><circle cx="42" cy="0" r="5"/>
      <circle cx="0" cy="14" r="5"/><circle cx="14" cy="14" r="5"/><circle cx="28" cy="14" r="5"/><circle cx="42" cy="14" r="5"/>
      <circle cx="0" cy="28" r="5"/><circle cx="14" cy="28" r="5"/><circle cx="28" cy="28" r="5"/><circle cx="42" cy="28" r="5"/>
    </g>
    <g transform="translate(120,42)">
      <circle cx="0" cy="0" r="5"/><circle cx="14" cy="0" r="5"/><circle cx="28" cy="0" r="5"/><circle cx="42" cy="0" r="5"/>
      <circle cx="0" cy="14" r="5"/><circle cx="14" cy="14" r="5"/><circle cx="28" cy="14" r="5"/><circle cx="42" cy="14" r="5"/>
      <circle cx="0" cy="28" r="5"/><circle cx="14" cy="28" r="5"/><circle cx="28" cy="28" r="5"/><circle cx="42" cy="28" r="5"/>
    </g>
    <g transform="translate(210,42)">
      <circle cx="0" cy="0" r="5"/><circle cx="14" cy="0" r="5"/><circle cx="28" cy="0" r="5"/><circle cx="42" cy="0" r="5"/>
      <circle cx="0" cy="14" r="5"/><circle cx="14" cy="14" r="5"/><circle cx="28" cy="14" r="5"/><circle cx="42" cy="14" r="5"/>
      <circle cx="0" cy="28" r="5"/><circle cx="14" cy="28" r="5"/><circle cx="28" cy="28" r="5"/><circle cx="42" cy="28" r="5"/>
    </g>
    <g transform="translate(300,42)">
      <circle cx="0" cy="0" r="5"/><circle cx="14" cy="0" r="5"/><circle cx="28" cy="0" r="5"/>
      <circle cx="0" cy="14" r="5"/><circle cx="14" cy="14" r="5"/><circle cx="28" cy="14" r="5"/>
      <circle cx="0" cy="28" r="5"/><circle cx="14" cy="28" r="5"/><circle cx="28" cy="28" r="5"/>
    </g>
  </g>
  <g fill="#111">
    <path d="M110 100 L100 118 L120 118 Z"/>
    <path d="M150 100 L140 118 L160 118 Z"/>
    <path d="M190 100 L180 118 L200 118 Z"/>
    <path d="M230 100 L220 118 L240 118 Z"/>
  </g>
  <rect x="70" y="128" width="220" height="46" fill="#c81414"/>
  <text x="180" y="156" text-anchor="middle" font-family="Georgia, serif" font-size="15" font-weight="bold" fill="#fff">The Enemy</text>
  <g fill="#1c3f8f">
    <path d="M70 186 L86 174 L86 198 Z"/>
    <path d="M104 186 L120 174 L120 198 Z"/>
    <path d="M138 186 L154 174 L154 198 Z"/>
    <path d="M172 186 L188 174 L188 198 Z"/>
    <path d="M206 186 L222 174 L222 198 Z"/>
    <path d="M240 186 L256 174 L256 198 Z"/>
    <path d="M274 186 L290 174 L290 198 Z"/>
  </g>
  <text x="180" y="222" text-anchor="middle" font-family="Georgia, serif" font-size="15" font-weight="bold" fill="#111">The Hammer</text>
  <path d="M55 190 C20 170, 20 90, 60 55" fill="none" stroke="#1c3f8f" stroke-width="4"/>
  <path d="M60 55 L48 58 L58 68 Z" fill="#1c3f8f"/>
  <path d="M305 190 C340 170, 340 90, 300 55" fill="none" stroke="#1c3f8f" stroke-width="4"/>
  <path d="M300 55 L312 58 L302 68 Z" fill="#1c3f8f"/>
</svg>
